<svg xmlns="http://www.w3.org/2000/svg" xmlns:xlink="http://www.w3.org/1999/xlink" style="isolation:isolate" viewBox="0 0 75 75" width="24" height="24"><defs><clipPath id="_clipPath_ZlHoMGJLQ7Z8bJHTHhYYxY7NiXQGTRwX"><rect width="75" height="75"/></clipPath></defs><g clip-path="url(#_clipPath_ZlHoMGJLQ7Z8bJHTHhYYxY7NiXQGTRwX)"><g><path d=" M 18.941 53.572 L 18.941 75 L 0.383 64.286 L 18.941 53.572 Z " fill="rgb(242,54,60)"/><path d=" M 74.617 42.858 L 74.617 64.286 L 56.057 53.572 L 74.617 42.858 Z " fill="rgb(238,118,12)"/><path d=" M 18.941 32.142 L 18.941 53.572 L 0.383 42.858 L 18.941 32.142 Z " fill="rgb(192,4,97)"/><path d=" M 0.383 42.858 L 0.383 64.286 L 18.941 53.572 L 0.383 42.858 Z " fill="rgb(222,4,74)"/><path d=" M 56.057 53.572 L 56.057 75 L 74.617 64.286 L 56.057 53.572 Z " fill="rgb(238,142,62)"/><path d=" M 56.057 32.142 L 56.057 53.572 L 74.617 42.858 L 56.057 32.142 Z " fill="rgb(245,16,56)"/><path d=" M 0.383 21.428 L 0.383 42.858 L 18.941 32.142 L 0.383 21.428 Z " fill="rgb(173,27,145)"/><path d=" M 74.617 21.428 L 74.617 42.858 L 56.057 32.142 L 74.617 21.428 Z " fill="rgb(198,102,35)"/><path d=" M 18.941 10.714 L 18.941 32.142 L 0.383 21.428 L 18.941 10.714 Z " fill="rgb(153,5,122)"/><path d=" M 18.941 10.714 L 18.941 32.142 L 37.499 21.428 L 18.941 10.714 Z " fill="rgb(146,20,110)"/><path d=" M 37.499 21.428 L 37.499 42.858 L 18.941 32.142 L 37.499 21.428 Z " fill="rgb(192,4,97)"/><path d=" M 56.057 10.714 L 56.057 32.142 L 74.617 21.428 L 56.057 10.714 Z " fill="rgb(183,86,26)"/><path d=" M 56.057 10.714 L 56.057 32.142 L 37.499 21.428 L 56.057 10.714 Z " fill="rgb(245,16,56)"/><path d=" M 74.617 0 L 74.617 21.428 L 56.057 10.714 L 74.617 0 Z " fill="rgb(118,145,57)"/><path d=" M 0.383 0 L 0.383 21.428 L 18.941 10.714 L 0.383 0 Z " fill="rgb(119,10,134)"/><path d=" M 37.499 21.428 L 37.499 42.858 L 56.057 32.142 L 37.499 21.428 Z " fill="rgb(221,4,74)"/></g></g></svg>