<svg xmlns="http://www.w3.org/2000/svg" xmlns:xlink="http://www.w3.org/1999/xlink" style="isolation:isolate" viewBox="0 0 134 24" width="134pt" height="24pt"><defs><clipPath id="_clipPath_t9v4mWJVYy7WYwC7KtBGu1qLUJwRZWh4"><rect width="134" height="24"/></clipPath></defs><g clip-path="url(#_clipPath_t9v4mWJVYy7WYwC7KtBGu1qLUJwRZWh4)"><rect width="134" height="24" style="fill:rgb(0,0,0)" fill-opacity="0"/><g><path d=" M 5.949 16.124 L 5.949 22.573 L 0.363 19.348 L 5.949 16.124 Z " fill="rgb(242,54,60)"/><path d=" M 22.706 12.899 L 22.706 19.348 L 17.12 16.124 L 22.706 12.899 Z " fill="rgb(238,118,12)"/><path d=" M 5.949 9.674 L 5.949 16.124 L 0.363 12.899 L 5.949 9.674 Z " fill="rgb(192,4,97)"/><path d=" M 0.363 12.899 L 0.363 19.348 L 5.949 16.124 L 0.363 12.899 Z " fill="rgb(222,4,74)"/><path d=" M 17.12 16.124 L 17.12 22.573 L 22.706 19.348 L 17.12 16.124 Z " fill="rgb(238,142,62)"/><path d=" M 17.12 9.674 L 17.12 16.124 L 22.706 12.899 L 17.12 9.674 Z " fill="rgb(245,16,56)"/><path d=" M 0.363 6.449 L 0.363 12.899 L 5.949 9.674 L 0.363 6.449 Z " fill="rgb(173,27,145)"/><path d=" M 22.706 6.449 L 22.706 12.899 L 17.12 9.674 L 22.706 6.449 Z " fill="rgb(198,102,35)"/><path d=" M 5.949 3.225 L 5.949 9.674 L 0.363 6.449 L 5.949 3.225 Z " fill="rgb(153,5,122)"/><path d=" M 5.949 3.225 L 5.949 9.674 L 11.534 6.449 L 5.949 3.225 Z " fill="rgb(146,20,110)"/><path d=" M 11.534 6.449 L 11.534 12.899 L 5.949 9.674 L 11.534 6.449 Z " fill="rgb(192,4,97)"/><path d=" M 17.12 3.225 L 17.12 9.674 L 22.706 6.449 L 17.12 3.225 Z " fill="rgb(183,86,26)"/><path d=" M 17.12 3.225 L 17.12 9.674 L 11.534 6.449 L 17.12 3.225 Z " fill="rgb(245,16,56)"/><path d=" M 22.706 0 L 22.706 6.449 L 17.12 3.225 L 22.706 0 Z " fill="rgb(118,145,57)"/><path d=" M 0.363 0 L 0.363 6.449 L 5.949 3.225 L 0.363 0 Z " fill="rgb(119,10,134)"/><path d=" M 11.534 6.449 L 11.534 12.899 L 17.12 9.674 L 11.534 6.449 Z " fill="rgb(221,4,74)"/><path d=" M 30.794 12.214 L 30.794 2.562 L 32.248 2.562 L 35.586 9.399 L 38.924 2.562 L 40.379 2.562 L 40.379 12.214 L 38.871 12.214 L 38.871 6.027 L 35.908 12.214 L 35.265 12.214 L 32.309 6.027 L 32.309 12.214 L 30.794 12.214 Z  M 43.991 12.415 C 43.468 12.415 43.026 12.317 42.664 12.12 C 42.302 11.919 42.027 11.653 41.84 11.322 C 41.656 10.992 41.565 10.628 41.565 10.23 C 41.565 9.881 41.623 9.569 41.739 9.291 C 41.855 9.01 42.034 8.769 42.275 8.568 C 42.516 8.362 42.829 8.194 43.214 8.065 C 43.504 7.971 43.844 7.886 44.232 7.81 C 44.626 7.734 45.05 7.665 45.506 7.602 C 45.966 7.535 46.447 7.464 46.947 7.388 L 46.371 7.716 C 46.375 7.216 46.263 6.847 46.036 6.61 C 45.808 6.374 45.423 6.255 44.883 6.255 C 44.556 6.255 44.241 6.331 43.937 6.483 C 43.634 6.635 43.421 6.896 43.301 7.267 L 41.826 6.805 C 42.005 6.193 42.345 5.701 42.845 5.33 C 43.35 4.959 44.029 4.774 44.883 4.774 C 45.526 4.774 46.091 4.879 46.578 5.089 C 47.07 5.299 47.434 5.643 47.671 6.121 C 47.801 6.376 47.879 6.637 47.905 6.905 C 47.932 7.169 47.946 7.457 47.946 7.77 L 47.946 12.214 L 46.532 12.214 L 46.532 10.645 L 46.766 10.9 C 46.44 11.423 46.058 11.807 45.62 12.053 C 45.186 12.294 44.643 12.415 43.991 12.415 Z  M 44.313 11.128 C 44.679 11.128 44.992 11.063 45.251 10.934 C 45.51 10.804 45.716 10.645 45.868 10.458 C 46.024 10.27 46.129 10.094 46.183 9.928 C 46.268 9.723 46.315 9.488 46.324 9.224 C 46.337 8.956 46.344 8.74 46.344 8.574 L 46.84 8.722 C 46.353 8.798 45.935 8.865 45.586 8.923 C 45.238 8.981 44.938 9.037 44.688 9.09 C 44.438 9.14 44.217 9.195 44.025 9.258 C 43.837 9.325 43.678 9.403 43.549 9.493 C 43.419 9.582 43.319 9.685 43.247 9.801 C 43.18 9.917 43.146 10.053 43.146 10.21 C 43.146 10.388 43.191 10.547 43.281 10.686 C 43.37 10.82 43.499 10.927 43.669 11.007 C 43.844 11.088 44.058 11.128 44.313 11.128 Z  M 52.191 12.415 C 51.297 12.415 50.571 12.214 50.012 11.812 C 49.454 11.41 49.114 10.844 48.994 10.116 L 50.643 9.861 C 50.727 10.219 50.915 10.5 51.206 10.706 C 51.496 10.911 51.862 11.014 52.305 11.014 C 52.694 11.014 52.993 10.938 53.203 10.786 C 53.417 10.63 53.525 10.418 53.525 10.149 C 53.525 9.984 53.484 9.852 53.404 9.754 C 53.328 9.651 53.158 9.553 52.895 9.459 C 52.631 9.365 52.226 9.247 51.681 9.104 C 51.074 8.943 50.591 8.771 50.233 8.588 C 49.876 8.4 49.619 8.179 49.463 7.924 C 49.306 7.669 49.228 7.361 49.228 6.999 C 49.228 6.548 49.347 6.155 49.583 5.819 C 49.82 5.484 50.151 5.227 50.575 5.049 C 51 4.865 51.5 4.774 52.077 4.774 C 52.64 4.774 53.138 4.861 53.571 5.035 C 54.009 5.21 54.362 5.458 54.63 5.779 C 54.899 6.101 55.064 6.479 55.126 6.912 L 53.478 7.207 C 53.437 6.899 53.297 6.655 53.055 6.476 C 52.819 6.298 52.501 6.197 52.104 6.175 C 51.724 6.152 51.418 6.21 51.185 6.349 C 50.953 6.483 50.837 6.673 50.837 6.919 C 50.837 7.057 50.884 7.176 50.978 7.274 C 51.071 7.372 51.259 7.471 51.541 7.569 C 51.827 7.667 52.251 7.788 52.814 7.931 C 53.391 8.078 53.851 8.248 54.195 8.44 C 54.543 8.628 54.794 8.854 54.946 9.117 C 55.102 9.381 55.18 9.7 55.18 10.076 C 55.18 10.804 54.914 11.376 54.383 11.792 C 53.855 12.207 53.125 12.415 52.191 12.415 Z  M 60.596 12.214 C 60.118 12.303 59.649 12.341 59.189 12.328 C 58.733 12.319 58.324 12.236 57.962 12.08 C 57.6 11.919 57.325 11.666 57.138 11.322 C 56.972 11.01 56.885 10.69 56.876 10.364 C 56.867 10.038 56.863 9.669 56.863 9.258 L 56.863 2.964 L 58.472 2.964 L 58.472 9.164 C 58.472 9.455 58.474 9.709 58.478 9.928 C 58.487 10.147 58.534 10.326 58.619 10.464 C 58.78 10.733 59.037 10.882 59.39 10.914 C 59.743 10.945 60.145 10.927 60.596 10.86 L 60.596 12.214 Z  M 55.549 6.242 L 55.549 4.975 L 60.596 4.975 L 60.596 6.242 L 55.549 6.242 Z  M 64.782 12.415 C 64.049 12.415 63.406 12.256 62.852 11.939 C 62.298 11.622 61.864 11.182 61.552 10.619 C 61.243 10.056 61.089 9.408 61.089 8.675 C 61.089 7.884 61.241 7.198 61.545 6.617 C 61.849 6.032 62.271 5.578 62.812 5.256 C 63.352 4.935 63.978 4.774 64.688 4.774 C 65.439 4.774 66.076 4.95 66.599 5.303 C 67.126 5.652 67.517 6.146 67.772 6.785 C 68.026 7.424 68.123 8.177 68.06 9.043 L 66.458 9.043 L 66.458 8.454 C 66.454 7.667 66.315 7.093 66.042 6.731 C 65.77 6.369 65.341 6.188 64.755 6.188 C 64.094 6.188 63.603 6.394 63.281 6.805 C 62.959 7.211 62.798 7.808 62.798 8.594 C 62.798 9.327 62.959 9.895 63.281 10.297 C 63.603 10.699 64.072 10.9 64.688 10.9 C 65.086 10.9 65.428 10.813 65.714 10.639 C 66.005 10.46 66.228 10.203 66.384 9.868 L 67.98 10.351 C 67.703 11.003 67.274 11.51 66.693 11.872 C 66.116 12.234 65.479 12.415 64.782 12.415 Z  M 62.289 9.043 L 62.289 7.824 L 67.269 7.824 L 67.269 9.043 L 62.289 9.043 Z  M 69.261 12.214 L 69.261 4.975 L 70.688 4.975 L 70.688 6.738 L 70.514 6.51 C 70.604 6.269 70.722 6.05 70.869 5.853 C 71.021 5.652 71.202 5.487 71.412 5.357 C 71.591 5.236 71.788 5.142 72.002 5.075 C 72.221 5.004 72.445 4.962 72.672 4.948 C 72.9 4.93 73.121 4.939 73.336 4.975 L 73.336 6.483 C 73.121 6.42 72.874 6.4 72.592 6.423 C 72.315 6.445 72.065 6.523 71.841 6.657 C 71.618 6.778 71.435 6.932 71.292 7.12 C 71.153 7.307 71.05 7.522 70.983 7.763 C 70.916 8 70.883 8.257 70.883 8.534 L 70.883 12.214 L 69.261 12.214 Z  M 83.013 12.214 L 83.013 7.817 C 83.013 7.321 82.891 6.934 82.645 6.657 C 82.399 6.376 82.066 6.235 81.646 6.235 C 81.387 6.235 81.155 6.295 80.949 6.416 C 80.743 6.532 80.58 6.706 80.46 6.939 C 80.339 7.167 80.279 7.439 80.279 7.757 L 79.562 7.334 C 79.557 6.834 79.669 6.394 79.897 6.014 C 80.129 5.63 80.442 5.33 80.835 5.116 C 81.228 4.901 81.666 4.794 82.149 4.794 C 82.949 4.794 83.561 5.035 83.985 5.518 C 84.414 5.996 84.629 6.626 84.629 7.408 L 84.629 12.214 L 83.013 12.214 Z  M 74.307 12.214 L 74.307 4.975 L 75.734 4.975 L 75.734 7.22 L 75.935 7.22 L 75.935 12.214 L 74.307 12.214 Z  M 78.67 12.214 L 78.67 7.837 C 78.67 7.332 78.547 6.939 78.302 6.657 C 78.056 6.376 77.721 6.235 77.296 6.235 C 76.885 6.235 76.554 6.376 76.304 6.657 C 76.058 6.939 75.935 7.305 75.935 7.757 L 75.211 7.274 C 75.211 6.805 75.328 6.382 75.56 6.007 C 75.792 5.632 76.105 5.337 76.498 5.122 C 76.896 4.903 77.341 4.794 77.832 4.794 C 78.373 4.794 78.824 4.91 79.186 5.142 C 79.553 5.37 79.825 5.683 80.004 6.081 C 80.187 6.474 80.279 6.919 80.279 7.415 L 80.279 12.214 L 78.67 12.214 Z  M 86.216 3.876 L 86.216 2.394 L 87.832 2.394 L 87.832 3.876 L 86.216 3.876 Z  M 86.216 12.214 L 86.216 4.975 L 87.832 4.975 L 87.832 12.214 L 86.216 12.214 Z  M 94.551 12.214 L 94.551 8.728 C 94.551 8.501 94.536 8.248 94.505 7.971 C 94.473 7.694 94.399 7.428 94.283 7.173 C 94.172 6.914 94.002 6.702 93.774 6.537 C 93.55 6.371 93.247 6.289 92.862 6.289 C 92.657 6.289 92.454 6.322 92.252 6.389 C 92.051 6.456 91.868 6.572 91.703 6.738 C 91.542 6.899 91.412 7.122 91.314 7.408 C 91.216 7.69 91.167 8.051 91.167 8.494 L 90.208 8.085 C 90.208 7.468 90.327 6.91 90.563 6.409 C 90.805 5.909 91.158 5.511 91.622 5.216 C 92.087 4.917 92.659 4.767 93.338 4.767 C 93.875 4.767 94.317 4.856 94.665 5.035 C 95.014 5.214 95.291 5.442 95.497 5.719 C 95.702 5.996 95.854 6.291 95.952 6.604 C 96.051 6.916 96.113 7.214 96.14 7.495 C 96.171 7.772 96.187 7.998 96.187 8.172 L 96.187 12.214 L 94.551 12.214 Z  M 89.531 12.214 L 89.531 4.975 L 90.972 4.975 L 90.972 7.22 L 91.167 7.22 L 91.167 12.214 L 89.531 12.214 Z  M 100.426 12.415 C 99.76 12.415 99.179 12.247 98.683 11.912 C 98.187 11.577 97.803 11.121 97.53 10.545 C 97.257 9.968 97.121 9.318 97.121 8.594 C 97.121 7.862 97.257 7.209 97.53 6.637 C 97.807 6.061 98.198 5.607 98.703 5.277 C 99.208 4.941 99.802 4.774 100.486 4.774 C 101.174 4.774 101.75 4.941 102.215 5.277 C 102.684 5.607 103.04 6.061 103.281 6.637 C 103.522 7.214 103.643 7.866 103.643 8.594 C 103.643 9.314 103.522 9.964 103.281 10.545 C 103.04 11.121 102.68 11.577 102.202 11.912 C 101.724 12.247 101.132 12.415 100.426 12.415 Z  M 100.673 10.967 C 101.107 10.967 101.455 10.869 101.719 10.672 C 101.987 10.471 102.182 10.192 102.302 9.834 C 102.427 9.477 102.49 9.064 102.49 8.594 C 102.49 8.121 102.427 7.707 102.302 7.354 C 102.182 6.997 101.992 6.72 101.732 6.523 C 101.473 6.322 101.138 6.222 100.727 6.222 C 100.294 6.222 99.936 6.329 99.655 6.543 C 99.373 6.753 99.166 7.039 99.031 7.401 C 98.897 7.759 98.83 8.156 98.83 8.594 C 98.83 9.037 98.895 9.439 99.025 9.801 C 99.159 10.158 99.362 10.442 99.635 10.652 C 99.907 10.862 100.253 10.967 100.673 10.967 Z  M 102.49 12.214 L 102.49 7.133 L 102.289 7.133 L 102.289 2.562 L 103.918 2.562 L 103.918 12.214 L 102.49 12.214 Z  M 109.584 12.415 C 108.619 12.415 107.792 12.205 107.104 11.785 C 106.416 11.36 105.886 10.771 105.516 10.015 C 105.149 9.26 104.966 8.384 104.966 7.388 C 104.966 6.391 105.149 5.516 105.516 4.76 C 105.886 4.005 106.416 3.418 107.104 2.998 C 107.792 2.573 108.619 2.361 109.584 2.361 C 110.697 2.361 111.624 2.64 112.366 3.199 C 113.107 3.753 113.628 4.501 113.927 5.444 L 112.299 5.893 C 112.111 5.263 111.791 4.772 111.34 4.419 C 110.889 4.061 110.303 3.882 109.584 3.882 C 108.936 3.882 108.395 4.028 107.962 4.318 C 107.533 4.608 107.209 5.017 106.99 5.545 C 106.776 6.067 106.666 6.682 106.662 7.388 C 106.662 8.094 106.769 8.711 106.983 9.238 C 107.202 9.761 107.528 10.167 107.962 10.458 C 108.395 10.748 108.936 10.893 109.584 10.893 C 110.303 10.893 110.889 10.715 111.34 10.357 C 111.791 10 112.111 9.508 112.299 8.883 L 113.927 9.332 C 113.628 10.275 113.107 11.025 112.366 11.584 C 111.624 12.138 110.697 12.415 109.584 12.415 Z  M 115.104 12.214 L 115.104 2.562 L 116.559 2.562 L 119.897 9.399 L 123.235 2.562 L 124.689 2.562 L 124.689 12.214 L 123.181 12.214 L 123.181 6.027 L 120.218 12.214 L 119.575 12.214 L 116.619 6.027 L 116.619 12.214 L 115.104 12.214 Z  M 129.85 12.415 C 129.144 12.415 128.507 12.292 127.939 12.046 C 127.376 11.801 126.912 11.45 126.545 10.994 C 126.183 10.534 125.953 9.989 125.855 9.358 L 127.531 9.104 C 127.674 9.676 127.966 10.118 128.408 10.431 C 128.855 10.744 129.369 10.9 129.95 10.9 C 130.294 10.9 130.618 10.847 130.922 10.739 C 131.226 10.632 131.472 10.476 131.659 10.27 C 131.852 10.065 131.948 9.812 131.948 9.513 C 131.948 9.379 131.925 9.256 131.88 9.144 C 131.836 9.028 131.769 8.925 131.679 8.836 C 131.594 8.746 131.483 8.666 131.344 8.594 C 131.21 8.518 131.054 8.454 130.875 8.4 L 128.382 7.663 C 128.167 7.6 127.935 7.517 127.685 7.415 C 127.439 7.307 127.204 7.162 126.981 6.979 C 126.762 6.791 126.581 6.555 126.438 6.269 C 126.299 5.978 126.23 5.621 126.23 5.196 C 126.23 4.575 126.387 4.054 126.699 3.634 C 127.017 3.21 127.441 2.893 127.973 2.683 C 128.509 2.473 129.103 2.37 129.756 2.374 C 130.417 2.379 131.007 2.493 131.525 2.716 C 132.044 2.935 132.477 3.255 132.826 3.675 C 133.174 4.095 133.42 4.602 133.563 5.196 L 131.827 5.498 C 131.755 5.158 131.617 4.87 131.411 4.633 C 131.21 4.392 130.962 4.209 130.667 4.083 C 130.377 3.958 130.066 3.891 129.736 3.882 C 129.414 3.878 129.114 3.927 128.837 4.03 C 128.565 4.128 128.344 4.271 128.174 4.459 C 128.009 4.646 127.926 4.865 127.926 5.116 C 127.926 5.353 127.997 5.547 128.14 5.699 C 128.283 5.846 128.46 5.965 128.67 6.054 C 128.885 6.139 129.101 6.21 129.32 6.269 L 131.049 6.751 C 131.286 6.814 131.552 6.899 131.847 7.006 C 132.142 7.113 132.426 7.263 132.698 7.455 C 132.971 7.647 133.194 7.9 133.368 8.212 C 133.547 8.525 133.637 8.923 133.637 9.405 C 133.637 9.906 133.532 10.346 133.322 10.726 C 133.116 11.101 132.837 11.414 132.484 11.664 C 132.131 11.914 131.726 12.102 131.271 12.227 C 130.819 12.352 130.346 12.415 129.85 12.415 Z " fill="rgb(0,0,0)"/><path d=" M 30.314 23.879 L 32.14 18.088 L 33.56 18.088 L 35.386 23.879 L 34.388 23.879 L 32.731 18.683 L 32.948 18.683 L 31.312 23.879 L 30.314 23.879 Z  M 31.332 22.625 L 31.332 21.72 L 34.372 21.72 L 34.372 22.625 L 31.332 22.625 Z  M 37.641 23.879 L 37.641 18.088 L 38.61 18.088 L 38.61 23.879 L 37.641 23.879 Z  M 45.543 23.879 L 43.85 18.088 L 44.867 18.088 L 46.022 22.271 L 47.172 18.096 L 48.189 18.088 L 49.343 22.271 L 50.494 18.088 L 51.511 18.088 L 49.822 23.879 L 48.865 23.879 L 47.678 19.761 L 46.5 23.879 L 45.543 23.879 Z  M 53.615 23.879 L 53.615 18.088 L 57.355 18.088 L 57.355 18.997 L 54.584 18.997 L 54.584 20.425 L 56.873 20.425 L 56.873 21.334 L 54.584 21.334 L 54.584 22.97 L 57.355 22.97 L 57.355 23.879 L 53.615 23.879 Z  M 59.768 23.879 L 59.768 18.088 L 62.064 18.088 C 62.456 18.088 62.776 18.167 63.026 18.325 C 63.278 18.481 63.464 18.681 63.584 18.925 C 63.708 19.169 63.769 19.421 63.769 19.681 C 63.769 20 63.693 20.271 63.54 20.493 C 63.39 20.716 63.185 20.866 62.925 20.944 L 62.925 20.742 C 63.29 20.826 63.566 20.999 63.753 21.261 C 63.944 21.524 64.039 21.823 64.039 22.158 C 64.039 22.501 63.973 22.802 63.842 23.059 C 63.71 23.316 63.515 23.517 63.255 23.662 C 62.997 23.807 62.678 23.879 62.298 23.879 L 59.768 23.879 Z  M 60.749 22.966 L 62.177 22.966 C 62.346 22.966 62.497 22.933 62.631 22.866 C 62.766 22.796 62.87 22.7 62.945 22.576 C 63.023 22.45 63.062 22.302 63.062 22.13 C 63.062 21.974 63.028 21.835 62.961 21.712 C 62.894 21.588 62.796 21.49 62.668 21.418 C 62.539 21.343 62.385 21.306 62.205 21.306 L 60.749 21.306 L 60.749 22.966 Z  M 60.749 20.401 L 62.052 20.401 C 62.192 20.401 62.316 20.374 62.426 20.32 C 62.536 20.267 62.623 20.187 62.688 20.083 C 62.752 19.978 62.784 19.85 62.784 19.697 C 62.784 19.496 62.72 19.328 62.591 19.194 C 62.463 19.06 62.283 18.993 62.052 18.993 L 60.749 18.993 L 60.749 20.401 Z  M 68.433 24 C 68.01 24 67.628 23.926 67.287 23.779 C 66.95 23.631 66.671 23.421 66.451 23.147 C 66.234 22.871 66.095 22.544 66.036 22.166 L 67.042 22.013 C 67.128 22.356 67.303 22.622 67.569 22.81 C 67.837 22.997 68.145 23.091 68.494 23.091 C 68.7 23.091 68.894 23.059 69.077 22.995 C 69.259 22.93 69.407 22.836 69.519 22.713 C 69.634 22.59 69.692 22.438 69.692 22.259 C 69.692 22.178 69.679 22.104 69.652 22.037 C 69.625 21.968 69.585 21.906 69.531 21.852 C 69.48 21.799 69.413 21.751 69.33 21.708 C 69.25 21.662 69.156 21.623 69.049 21.591 L 67.553 21.149 C 67.424 21.111 67.285 21.062 67.135 21 C 66.987 20.936 66.846 20.848 66.712 20.738 C 66.581 20.626 66.472 20.484 66.386 20.312 C 66.303 20.138 66.262 19.923 66.262 19.669 C 66.262 19.296 66.355 18.984 66.543 18.732 C 66.734 18.477 66.988 18.287 67.307 18.161 C 67.629 18.035 67.986 17.973 68.377 17.976 C 68.774 17.978 69.128 18.047 69.439 18.181 C 69.75 18.312 70.01 18.504 70.219 18.756 C 70.428 19.008 70.576 19.312 70.661 19.669 L 69.62 19.85 C 69.577 19.646 69.494 19.473 69.371 19.331 C 69.25 19.186 69.101 19.076 68.924 19.001 C 68.75 18.926 68.564 18.886 68.365 18.88 C 68.172 18.878 67.992 18.907 67.826 18.969 C 67.663 19.028 67.53 19.114 67.428 19.226 C 67.329 19.339 67.279 19.47 67.279 19.62 C 67.279 19.763 67.322 19.879 67.408 19.97 C 67.494 20.059 67.6 20.13 67.726 20.183 C 67.854 20.234 67.984 20.277 68.116 20.312 L 69.153 20.602 C 69.295 20.639 69.455 20.69 69.632 20.755 C 69.809 20.819 69.979 20.909 70.143 21.024 C 70.306 21.139 70.44 21.291 70.545 21.478 C 70.652 21.666 70.706 21.905 70.706 22.194 C 70.706 22.495 70.643 22.759 70.517 22.987 C 70.393 23.212 70.226 23.399 70.014 23.55 C 69.802 23.7 69.559 23.812 69.286 23.887 C 69.015 23.962 68.731 24 68.433 24 Z  M 73.104 23.879 L 73.104 18.088 L 74.074 18.088 L 74.074 23.879 L 73.104 23.879 Z  M 78.117 23.879 L 78.117 18.997 L 76.243 18.997 L 76.243 18.088 L 80.961 18.088 L 80.961 18.997 L 79.087 18.997 L 79.087 23.879 L 78.117 23.879 Z  M 83.052 23.879 L 83.052 18.088 L 86.792 18.088 L 86.792 18.997 L 84.021 18.997 L 84.021 20.425 L 86.309 20.425 L 86.309 21.334 L 84.021 21.334 L 84.021 22.97 L 86.792 22.97 L 86.792 23.879 L 83.052 23.879 Z  M 92.263 23.879 L 92.263 18.088 L 94.559 18.088 C 94.95 18.088 95.271 18.167 95.52 18.325 C 95.772 18.481 95.958 18.681 96.079 18.925 C 96.202 19.169 96.264 19.421 96.264 19.681 C 96.264 20 96.188 20.271 96.035 20.493 C 95.885 20.716 95.679 20.866 95.419 20.944 L 95.419 20.742 C 95.784 20.826 96.06 20.999 96.248 21.261 C 96.438 21.524 96.534 21.823 96.534 22.158 C 96.534 22.501 96.468 22.802 96.336 23.059 C 96.205 23.316 96.009 23.517 95.749 23.662 C 95.492 23.807 95.173 23.879 94.792 23.879 L 92.263 23.879 Z  M 93.244 22.966 L 94.671 22.966 C 94.84 22.966 94.992 22.933 95.126 22.866 C 95.26 22.796 95.365 22.7 95.44 22.576 C 95.517 22.45 95.556 22.302 95.556 22.13 C 95.556 21.974 95.523 21.835 95.456 21.712 C 95.389 21.588 95.291 21.49 95.162 21.418 C 95.033 21.343 94.879 21.306 94.7 21.306 L 93.244 21.306 L 93.244 22.966 Z  M 93.244 20.401 L 94.547 20.401 C 94.686 20.401 94.811 20.374 94.921 20.32 C 95.031 20.267 95.118 20.187 95.182 20.083 C 95.247 19.978 95.279 19.85 95.279 19.697 C 95.279 19.496 95.214 19.328 95.086 19.194 C 94.957 19.06 94.777 18.993 94.547 18.993 L 93.244 18.993 L 93.244 20.401 Z  M 101.117 24 C 100.656 24 100.25 23.906 99.898 23.718 C 99.55 23.531 99.276 23.267 99.078 22.926 C 98.882 22.586 98.784 22.186 98.784 21.728 L 98.784 18.096 L 99.766 18.088 L 99.766 21.704 C 99.766 21.921 99.802 22.115 99.874 22.287 C 99.949 22.458 100.05 22.604 100.176 22.725 C 100.302 22.843 100.447 22.933 100.61 22.995 C 100.774 23.056 100.943 23.087 101.117 23.087 C 101.297 23.087 101.467 23.056 101.628 22.995 C 101.791 22.93 101.936 22.839 102.062 22.721 C 102.188 22.6 102.287 22.454 102.36 22.283 C 102.432 22.111 102.468 21.918 102.468 21.704 L 102.468 18.088 L 103.45 18.088 L 103.45 21.728 C 103.45 22.186 103.35 22.586 103.152 22.926 C 102.956 23.267 102.683 23.531 102.332 23.718 C 101.983 23.906 101.578 24 101.117 24 Z  M 106.101 23.879 L 106.101 18.088 L 107.071 18.088 L 107.071 23.879 L 106.101 23.879 Z  M 109.804 23.879 L 109.804 18.088 L 110.773 18.088 L 110.773 22.97 L 113.331 22.97 L 113.331 23.879 L 109.804 23.879 Z  M 115.46 23.879 L 115.46 18.088 L 117.306 18.088 C 117.354 18.088 117.449 18.09 117.591 18.092 C 117.736 18.095 117.875 18.104 118.009 18.12 C 118.468 18.179 118.855 18.343 119.172 18.611 C 119.491 18.876 119.732 19.216 119.896 19.628 C 120.059 20.041 120.141 20.493 120.141 20.984 C 120.141 21.474 120.059 21.926 119.896 22.339 C 119.732 22.752 119.491 23.092 119.172 23.361 C 118.855 23.626 118.468 23.788 118.009 23.847 C 117.878 23.863 117.74 23.873 117.595 23.875 C 117.451 23.878 117.354 23.879 117.306 23.879 L 115.46 23.879 Z  M 116.445 22.966 L 117.306 22.966 C 117.386 22.966 117.488 22.964 117.611 22.958 C 117.737 22.953 117.849 22.941 117.945 22.922 C 118.219 22.871 118.441 22.749 118.613 22.556 C 118.784 22.363 118.91 22.129 118.991 21.852 C 119.074 21.576 119.116 21.287 119.116 20.984 C 119.116 20.67 119.074 20.375 118.991 20.099 C 118.908 19.823 118.779 19.591 118.605 19.403 C 118.433 19.216 118.213 19.096 117.945 19.045 C 117.849 19.024 117.737 19.012 117.611 19.009 C 117.488 19.004 117.386 19.001 117.306 19.001 L 116.445 19.001 L 116.445 22.966 Z  M 122.54 23.879 L 122.54 18.088 L 126.28 18.088 L 126.28 18.997 L 123.509 18.997 L 123.509 20.425 L 125.797 20.425 L 125.797 21.334 L 123.509 21.334 L 123.509 22.97 L 126.28 22.97 L 126.28 23.879 L 122.54 23.879 Z  M 128.692 23.879 L 128.692 18.088 L 131.085 18.088 C 131.141 18.088 131.214 18.091 131.302 18.096 C 131.391 18.099 131.473 18.107 131.548 18.12 C 131.883 18.171 132.159 18.283 132.376 18.454 C 132.596 18.626 132.758 18.843 132.863 19.106 C 132.97 19.366 133.024 19.655 133.024 19.974 C 133.024 20.446 132.904 20.852 132.666 21.193 C 132.427 21.531 132.061 21.74 131.568 21.82 L 131.154 21.856 L 129.661 21.856 L 129.661 23.879 L 128.692 23.879 Z  M 132.018 23.879 L 130.876 21.523 L 131.861 21.306 L 133.116 23.879 L 132.018 23.879 Z  M 129.661 20.952 L 131.045 20.952 C 131.098 20.952 131.159 20.949 131.226 20.944 C 131.293 20.938 131.355 20.927 131.411 20.911 C 131.572 20.871 131.698 20.8 131.789 20.698 C 131.883 20.596 131.948 20.481 131.986 20.352 C 132.026 20.224 132.046 20.098 132.046 19.974 C 132.046 19.851 132.026 19.725 131.986 19.596 C 131.948 19.465 131.883 19.348 131.789 19.246 C 131.698 19.145 131.572 19.073 131.411 19.033 C 131.355 19.017 131.293 19.008 131.226 19.005 C 131.159 19 131.098 18.997 131.045 18.997 L 129.661 18.997 L 129.661 20.952 Z " fill="rgb(154,154,154)"/></g></g></svg>